<?xml version="1.0" encoding="UTF-8"?>
<svg xmlns="http://www.w3.org/2000/svg" xmlns:xlink="http://www.w3.org/1999/xlink" width="1417.32pt" height="1417.32pt" viewBox="0 0 1417.32 1417.32">
<path fill-rule="nonzero" fill="rgb(13.729858%, 12.159729%, 12.548828%)" fill-opacity="1" d="M 487.925781 1158.601562 C 486.300781 1156.394531 483.707031 1155.273438 481.078125 1155.273438 C 474.960938 1155.273438 470.625 1160.652344 470.625 1166.652344 C 470.625 1172.996094 474.921875 1178.027344 481.078125 1178.027344 C 484.402344 1178.027344 487.074219 1176.671875 489.007812 1174.195312 L 491.449219 1176.246094 C 489.007812 1179.539062 485.449219 1181.046875 481.078125 1181.046875 C 473.21875 1181.046875 467.144531 1174.96875 467.144531 1166.652344 C 467.144531 1158.601562 472.949219 1152.253906 481.078125 1152.253906 C 484.792969 1152.253906 488.429688 1153.53125 490.75 1156.550781 Z M 487.925781 1158.601562 "/>
<path fill-rule="nonzero" fill="rgb(13.729858%, 12.159729%, 12.548828%)" fill-opacity="1" d="M 527.277344 1166.652344 C 527.277344 1160.339844 522.863281 1155.273438 516.441406 1155.273438 C 510.015625 1155.273438 505.605469 1160.339844 505.605469 1166.652344 C 505.605469 1172.957031 510.015625 1178.027344 516.441406 1178.027344 C 522.863281 1178.027344 527.277344 1172.957031 527.277344 1166.652344 M 502.121094 1166.652344 C 502.121094 1158.371094 508.121094 1152.253906 516.441406 1152.253906 C 524.761719 1152.253906 530.761719 1158.371094 530.761719 1166.652344 C 530.761719 1174.929688 524.761719 1181.046875 516.441406 1181.046875 C 508.121094 1181.046875 502.121094 1174.929688 502.121094 1166.652344 "/>
<path fill-rule="nonzero" fill="rgb(13.729858%, 12.159729%, 12.548828%)" fill-opacity="1" d="M 543.714844 1152.949219 L 547.816406 1152.949219 L 563.683594 1175.707031 L 563.761719 1175.707031 L 563.761719 1152.949219 L 567.015625 1152.949219 L 567.015625 1180.347656 L 562.910156 1180.347656 L 547.042969 1157.59375 L 546.964844 1157.59375 L 546.964844 1180.347656 L 543.714844 1180.347656 Z M 543.714844 1152.949219 "/>
<path fill-rule="nonzero" fill="rgb(13.729858%, 12.159729%, 12.548828%)" fill-opacity="1" d="M 594.5625 1157.789062 C 593.476562 1156.046875 591.542969 1155.273438 589.570312 1155.273438 C 586.703125 1155.273438 583.726562 1156.628906 583.726562 1159.878906 C 583.726562 1162.394531 585.117188 1163.515625 589.492188 1164.90625 C 593.75 1166.261719 597.695312 1167.65625 597.695312 1173.035156 C 597.695312 1178.492188 593.011719 1181.046875 588.058594 1181.046875 C 584.886719 1181.046875 581.480469 1180 579.621094 1177.253906 L 582.410156 1174.972656 C 583.570312 1176.984375 585.890625 1178.027344 588.253906 1178.027344 C 591.039062 1178.027344 594.214844 1176.402344 594.214844 1173.269531 C 594.214844 1169.898438 591.929688 1169.320312 587.054688 1167.695312 C 583.183594 1166.417969 580.242188 1164.714844 580.242188 1160.148438 C 580.242188 1154.886719 584.769531 1152.253906 589.570312 1152.253906 C 592.625 1152.253906 595.21875 1153.105469 597.230469 1155.464844 Z M 594.5625 1157.789062 "/>
<path fill-rule="nonzero" fill="rgb(13.729858%, 12.159729%, 12.548828%)" fill-opacity="1" d="M 629.191406 1155.96875 L 620.132812 1155.96875 L 620.132812 1180.351562 L 616.882812 1180.351562 L 616.882812 1155.96875 L 607.828125 1155.96875 L 607.828125 1152.949219 L 629.191406 1152.949219 Z M 629.191406 1155.96875 "/>
<path fill-rule="nonzero" fill="rgb(13.729858%, 12.159729%, 12.548828%)" fill-opacity="1" d="M 644.007812 1165.023438 L 646.910156 1165.023438 C 650.507812 1165.023438 655.191406 1165.023438 655.191406 1160.496094 C 655.191406 1156.550781 651.746094 1155.96875 648.574219 1155.96875 L 644.007812 1155.96875 Z M 640.757812 1152.949219 L 647.761719 1152.949219 C 653.0625 1152.949219 658.671875 1153.722656 658.671875 1160.496094 C 658.671875 1164.484375 656.082031 1167.078125 651.824219 1167.734375 L 659.601562 1180.347656 L 655.617188 1180.347656 L 648.1875 1168.042969 L 644.007812 1168.042969 L 644.007812 1180.347656 L 640.757812 1180.347656 Z M 640.757812 1152.949219 "/>
<path fill-rule="nonzero" fill="rgb(13.729858%, 12.159729%, 12.548828%)" fill-opacity="1" d="M 692.683594 1169.902344 C 692.683594 1175.863281 689.898438 1181.046875 682.351562 1181.046875 C 674.804688 1181.046875 672.019531 1175.863281 672.019531 1169.902344 L 672.019531 1152.949219 L 675.269531 1152.949219 L 675.269531 1169.4375 C 675.269531 1173.847656 676.898438 1178.027344 682.351562 1178.027344 C 687.808594 1178.027344 689.433594 1173.847656 689.433594 1169.4375 L 689.433594 1152.949219 L 692.683594 1152.949219 Z M 692.683594 1169.902344 "/>
<path fill-rule="nonzero" fill="rgb(13.729858%, 12.159729%, 12.548828%)" fill-opacity="1" d="M 726.308594 1158.601562 C 724.683594 1156.394531 722.089844 1155.273438 719.457031 1155.273438 C 713.34375 1155.273438 709.007812 1160.652344 709.007812 1166.652344 C 709.007812 1172.996094 713.304688 1178.027344 719.457031 1178.027344 C 722.785156 1178.027344 725.457031 1176.671875 727.390625 1174.195312 L 729.828125 1176.246094 C 727.390625 1179.539062 723.832031 1181.046875 719.457031 1181.046875 C 711.601562 1181.046875 705.527344 1174.96875 705.527344 1166.652344 C 705.527344 1158.601562 711.332031 1152.253906 719.457031 1152.253906 C 723.171875 1152.253906 726.8125 1153.53125 729.132812 1156.550781 Z M 726.308594 1158.601562 "/>
<path fill-rule="nonzero" fill="rgb(13.729858%, 12.159729%, 12.548828%)" fill-opacity="1" d="M 760.472656 1155.96875 L 751.414062 1155.96875 L 751.414062 1180.351562 L 748.164062 1180.351562 L 748.164062 1155.96875 L 739.109375 1155.96875 L 739.109375 1152.949219 L 760.472656 1152.949219 Z M 760.472656 1155.96875 "/>
<path fill-rule="nonzero" fill="rgb(13.729858%, 12.159729%, 12.548828%)" fill-opacity="1" d="M 772.039062 1152.949219 L 775.289062 1152.949219 L 775.289062 1180.347656 L 772.039062 1180.347656 Z M 772.039062 1152.949219 "/>
<path fill-rule="nonzero" fill="rgb(13.729858%, 12.159729%, 12.548828%)" fill-opacity="1" d="M 813.40625 1166.652344 C 813.40625 1160.339844 808.992188 1155.273438 802.566406 1155.273438 C 796.144531 1155.273438 791.730469 1160.339844 791.730469 1166.652344 C 791.730469 1172.957031 796.144531 1178.027344 802.566406 1178.027344 C 808.992188 1178.027344 813.40625 1172.957031 813.40625 1166.652344 M 788.25 1166.652344 C 788.25 1158.371094 794.246094 1152.253906 802.566406 1152.253906 C 810.890625 1152.253906 816.886719 1158.371094 816.886719 1166.652344 C 816.886719 1174.929688 810.890625 1181.046875 802.566406 1181.046875 C 794.246094 1181.046875 788.25 1174.929688 788.25 1166.652344 "/>
<path fill-rule="nonzero" fill="rgb(13.729858%, 12.159729%, 12.548828%)" fill-opacity="1" d="M 829.84375 1152.949219 L 833.945312 1152.949219 L 849.8125 1175.707031 L 849.890625 1175.707031 L 849.890625 1152.949219 L 853.144531 1152.949219 L 853.144531 1180.347656 L 849.039062 1180.347656 L 833.171875 1157.59375 L 833.09375 1157.59375 L 833.09375 1180.347656 L 829.84375 1180.347656 Z M 829.84375 1152.949219 "/>
<path fill-rule="nonzero" fill="rgb(13.729858%, 12.159729%, 12.548828%)" fill-opacity="1" d="M 905.375 1158.601562 C 903.75 1156.394531 901.15625 1155.273438 898.527344 1155.273438 C 892.410156 1155.273438 888.074219 1160.652344 888.074219 1166.652344 C 888.074219 1172.996094 892.371094 1178.027344 898.527344 1178.027344 C 901.855469 1178.027344 904.523438 1176.671875 906.460938 1174.195312 L 908.898438 1176.246094 C 906.460938 1179.539062 902.898438 1181.046875 898.527344 1181.046875 C 890.667969 1181.046875 884.59375 1174.96875 884.59375 1166.652344 C 884.59375 1158.601562 890.398438 1152.253906 898.527344 1152.253906 C 902.242188 1152.253906 905.878906 1153.53125 908.199219 1156.550781 Z M 905.375 1158.601562 "/>
<path fill-rule="nonzero" fill="rgb(13.729858%, 12.159729%, 12.548828%)" fill-opacity="1" d="M 944.726562 1166.652344 C 944.726562 1160.339844 940.3125 1155.273438 933.890625 1155.273438 C 927.464844 1155.273438 923.054688 1160.339844 923.054688 1166.652344 C 923.054688 1172.957031 927.464844 1178.027344 933.890625 1178.027344 C 940.3125 1178.027344 944.726562 1172.957031 944.726562 1166.652344 M 919.570312 1166.652344 C 919.570312 1158.371094 925.570312 1152.253906 933.890625 1152.253906 C 942.210938 1152.253906 948.207031 1158.371094 948.207031 1166.652344 C 948.207031 1174.929688 942.210938 1181.046875 933.890625 1181.046875 C 925.570312 1181.046875 919.570312 1174.929688 919.570312 1166.652344 "/>
<path fill-rule="nonzero" fill="rgb(13.729858%, 12.159729%, 12.548828%)" fill-opacity="1" d="M 965.460938 1178.261719 C 965.460938 1179.535156 964.339844 1180.582031 963.140625 1180.582031 C 961.941406 1180.582031 960.816406 1179.535156 960.816406 1178.261719 C 960.816406 1176.984375 961.859375 1175.9375 963.140625 1175.9375 C 964.414062 1175.9375 965.460938 1176.984375 965.460938 1178.261719 "/>
<path fill-rule="nonzero" fill="rgb(13.729858%, 12.159729%, 12.548828%)" fill-opacity="1" d="M 434.578125 1118.054688 C 407.035156 1118.054688 389.988281 1094.78125 389.988281 1073.214844 C 389.988281 1045.925781 408.582031 1026.867188 435.207031 1026.867188 C 447.292969 1026.867188 458.203125 1031.480469 464.675781 1039.265625 L 456.554688 1045.457031 C 451.414062 1039.433594 443.207031 1035.734375 434.828125 1035.734375 C 414.859375 1035.734375 400.363281 1051.496094 400.363281 1073.214844 C 400.363281 1094.0625 414.859375 1109.1875 434.828125 1109.1875 C 444.480469 1109.1875 452.59375 1105.234375 458.367188 1097.730469 L 466.574219 1103.914062 C 463.488281 1107.730469 453.382812 1118.054688 434.578125 1118.054688 "/>
<path fill-rule="nonzero" fill="rgb(13.729858%, 12.159729%, 12.548828%)" fill-opacity="1" d="M 517.070312 1085.648438 L 554.472656 1085.648438 L 536.859375 1042.277344 L 534.953125 1042.277344 Z M 566.816406 1115.789062 L 557.878906 1093.761719 L 513.796875 1093.761719 L 504.988281 1115.789062 L 493.609375 1115.789062 L 531.796875 1029.132812 L 541.132812 1029.132812 L 578.21875 1115.789062 Z M 566.816406 1115.789062 "/>
<path fill-rule="nonzero" fill="rgb(13.729858%, 12.159729%, 12.548828%)" fill-opacity="1" d="M 622.65625 1068.40625 L 639.746094 1068.40625 C 644.785156 1068.40625 660.113281 1068.40625 660.113281 1052.824219 C 660.113281 1037.246094 644.785156 1037.246094 639.746094 1037.246094 L 622.65625 1037.246094 Z M 613.035156 1115.789062 L 613.035156 1029.132812 L 643.144531 1029.132812 C 667.824219 1029.132812 670.484375 1045.703125 670.484375 1052.824219 C 670.484375 1059.949219 667.824219 1076.515625 643.144531 1076.515625 L 622.65625 1076.515625 L 622.65625 1115.789062 Z M 613.035156 1115.789062 "/>
<path fill-rule="nonzero" fill="rgb(13.729858%, 12.159729%, 12.548828%)" fill-opacity="1" d="M 726.445312 1115.789062 L 726.445312 1038 L 697.746094 1038 L 697.746094 1029.132812 L 764.765625 1029.132812 L 764.765625 1038 L 736.0625 1038 L 736.0625 1115.789062 Z M 726.445312 1115.789062 "/>
<path fill-rule="nonzero" fill="rgb(13.729858%, 12.159729%, 12.548828%)" fill-opacity="1" d="M 801.414062 1085.648438 L 838.816406 1085.648438 L 821.203125 1042.277344 L 819.292969 1042.277344 Z M 851.15625 1115.789062 L 842.222656 1093.761719 L 798.140625 1093.761719 L 789.332031 1115.789062 L 777.953125 1115.789062 L 816.140625 1029.132812 L 825.476562 1029.132812 L 862.558594 1115.789062 Z M 851.15625 1115.789062 "/>
<path fill-rule="nonzero" fill="rgb(13.729858%, 12.159729%, 12.548828%)" fill-opacity="1" d="M 897.378906 1029.132812 L 906.996094 1029.132812 L 906.996094 1115.789062 L 897.378906 1115.789062 Z M 897.378906 1029.132812 "/>
<path fill-rule="nonzero" fill="rgb(13.729858%, 12.159729%, 12.548828%)" fill-opacity="1" d="M 1013.859375 1115.789062 L 964.265625 1042.53125 L 962.132812 1042.53125 L 962.132812 1115.789062 L 952.511719 1115.789062 L 952.511719 1029.132812 L 966.484375 1029.132812 L 1015.570312 1102.390625 L 1017.714844 1102.390625 L 1017.714844 1029.132812 L 1027.332031 1029.132812 L 1027.332031 1115.789062 Z M 1013.859375 1115.789062 "/>
<path fill-rule="nonzero" fill="rgb(13.729858%, 12.159729%, 12.548828%)" fill-opacity="1" d="M 784.109375 884.777344 C 760.328125 895.515625 740.355469 913.007812 724.75 936.757812 L 714.773438 951.945312 L 714.773438 818.679688 L 724.632812 832.503906 C 738.28125 851.640625 758.136719 865.832031 783.65625 874.691406 L 796.542969 879.164062 Z M 702.203125 951.820312 L 692.234375 936.777344 C 676.339844 912.78125 656.480469 895.285156 633.207031 884.777344 L 620.777344 879.164062 L 633.664062 874.691406 C 650.855469 868.722656 674.992188 856.554688 692.359375 832.480469 L 702.203125 818.835938 Z M 665.5625 677.207031 C 655.789062 671.710938 649.828125 664.773438 645.605469 659.070312 C 640.808594 652.582031 640.714844 648.367188 641.089844 646.429688 C 641.359375 645.015625 642.019531 643.976562 643.042969 643.34375 C 644.296875 642.570312 645.992188 642.4375 647.605469 642.988281 C 650.421875 643.953125 652.859375 646.851562 654.46875 651.148438 C 657.253906 658.585938 661.097656 667.683594 667.019531 675.578125 C 667.742188 676.539062 666.605469 677.792969 665.5625 677.207031 M 667.019531 553.445312 C 661.097656 561.339844 657.25 570.4375 654.46875 577.871094 C 652.859375 582.171875 650.421875 585.070312 647.605469 586.03125 C 646.003906 586.585938 644.300781 586.453125 643.039062 585.679688 C 642.015625 585.046875 641.359375 584.007812 641.089844 582.589844 C 640.714844 580.65625 640.808594 576.4375 645.605469 569.949219 C 649.828125 564.25 655.789062 557.3125 665.558594 551.820312 C 666.601562 551.230469 667.738281 552.488281 667.019531 553.445312 M 687.75 755.898438 C 687.660156 755.886719 687.570312 755.871094 687.480469 755.847656 C 630.820312 742.433594 605.332031 675.199219 605.207031 614.507812 C 605.332031 553.824219 630.769531 486.597656 687.320312 473.203125 C 687.40625 473.183594 687.492188 473.167969 687.582031 473.152344 C 692.558594 472.453125 697.476562 472.019531 702.261719 471.851562 L 702.246094 533.035156 C 664.882812 534.710938 648.34375 550.511719 638.082031 564.382812 C 631.503906 573.277344 631.085938 580.160156 631.894531 584.363281 C 632.667969 588.347656 634.878906 591.644531 638.125 593.644531 C 641.75 595.878906 646.394531 596.34375 650.636719 594.890625 C 656.152344 593 660.628906 588.125 663.234375 581.152344 C 671.417969 559.296875 680.816406 545.753906 702.246094 543.226562 L 702.210938 685.75 C 680.871094 683.007812 670.980469 668.558594 663.234375 647.867188 C 660.628906 640.898438 656.152344 636.019531 650.636719 634.132812 C 646.398438 632.679688 641.753906 633.140625 638.125 635.375 C 634.878906 637.378906 632.667969 640.675781 631.894531 644.65625 C 631.085938 648.863281 631.503906 655.742188 638.082031 664.636719 C 648.339844 678.503906 664.871094 694.300781 702.210938 695.984375 L 702.199219 753.730469 C 702.199219 754.890625 702.171875 756.03125 702.152344 757.171875 C 697.4375 757.003906 692.613281 756.578125 687.75 755.898438 M 627.726562 732.550781 C 627.164062 733.179688 626.378906 733.507812 625.582031 733.507812 C 625.066406 733.507812 624.550781 733.371094 624.085938 733.089844 C 593.042969 714.269531 556 678.417969 555.8125 614.503906 C 556 550.601562 593.042969 514.753906 624.085938 495.929688 C 624.550781 495.652344 625.066406 495.511719 625.582031 495.511719 C 626.378906 495.511719 627.164062 495.84375 627.726562 496.46875 C 628.652344 497.5 628.714844 499.042969 627.875 500.148438 C 606.09375 528.714844 594.003906 569.175781 593.832031 614.054688 L 593.832031 614.960938 C 594.003906 659.851562 606.09375 700.304688 627.875 728.875 C 628.714844 729.976562 628.652344 731.523438 627.726562 732.550781 M 653.050781 372.144531 L 636.976562 362.101562 L 781.125 362.101562 L 764.816406 372.160156 C 740.980469 386.863281 723.652344 403.265625 713.304688 420.910156 L 708.589844 428.953125 L 703.917969 420.882812 C 693.703125 403.246094 676.589844 386.847656 653.050781 372.144531 M 668.769531 289.167969 C 668.769531 267.0625 686.6875 249.140625 708.792969 249.140625 C 730.894531 249.140625 748.816406 267.0625 748.816406 289.167969 C 748.816406 311.273438 730.894531 329.191406 708.792969 329.191406 C 686.6875 329.191406 668.769531 311.273438 668.769531 289.167969 M 719.445312 543.441406 C 747.667969 550.125 760.375 583.957031 760.4375 614.515625 C 760.375 645.070312 747.695312 678.890625 719.503906 685.570312 C 717.964844 685.785156 716.433594 685.945312 714.921875 686.058594 L 714.867188 542.957031 C 716.378906 543.070312 717.90625 543.226562 719.445312 543.441406 M 757.480469 558.84375 C 771.441406 569.03125 785.789062 586.351562 785.871094 614.519531 C 785.789062 642.578125 771.539062 659.875 757.527344 670.097656 C 756.546875 670.816406 755.273438 669.652344 755.910156 668.621094 C 764.824219 654.175781 769.714844 635.339844 769.792969 614.753906 L 769.792969 614.277344 C 769.714844 593.644531 764.804688 574.78125 755.863281 560.324219 C 755.226562 559.292969 756.5 558.128906 757.480469 558.84375 M 779.101562 484.914062 C 779.652344 484.117188 780.546875 483.675781 781.46875 483.675781 C 781.851562 483.675781 782.238281 483.75 782.605469 483.910156 C 809.425781 495.441406 824.34375 512.433594 834.34375 525.953125 C 844.441406 539.597656 844.554688 548.859375 843.726562 553.164062 C 843.019531 556.832031 841.175781 559.679688 838.382812 561.40625 C 836.40625 562.625 834.0625 563.265625 831.601562 563.265625 C 829.945312 563.265625 828.273438 562.980469 826.636719 562.417969 C 820.1875 560.210938 814.714844 553.867188 811.222656 544.546875 C 804.746094 527.238281 795.273438 505.234375 779.378906 488.546875 C 778.433594 487.558594 778.316406 486.039062 779.101562 484.914062 M 779.382812 740.46875 C 795.265625 723.800781 804.746094 701.789062 811.226562 684.476562 C 814.714844 675.15625 820.1875 668.808594 826.636719 666.605469 C 828.269531 666.042969 829.941406 665.757812 831.605469 665.757812 C 834.066406 665.757812 836.410156 666.398438 838.382812 667.617188 C 841.175781 669.339844 843.019531 672.191406 843.726562 675.863281 C 844.554688 680.167969 844.441406 689.425781 834.34375 703.070312 C 824.347656 716.589844 809.429688 733.582031 782.609375 745.109375 C 782.242188 745.269531 781.855469 745.34375 781.472656 745.34375 C 780.550781 745.34375 779.65625 744.902344 779.101562 744.109375 C 778.320312 742.984375 778.4375 741.464844 779.382812 740.46875 M 1008.414062 704.789062 C 1005.082031 704.789062 1002.304688 707.394531 1002.144531 710.722656 C 996.234375 832.464844 895.644531 872.257812 846.175781 872.257812 C 808.785156 872.257812 724.421875 861.851562 715.691406 769.558594 C 790.941406 767.765625 823.503906 736.867188 843.5 709.84375 C 855.546875 693.558594 856.351562 681.199219 854.910156 673.703125 C 853.597656 666.914062 849.851562 661.308594 844.367188 657.925781 C 840.589844 655.597656 836.179688 654.367188 831.609375 654.367188 C 828.699219 654.367188 825.785156 654.859375 822.945312 655.828125 C 813.214844 659.164062 805.265625 667.917969 800.558594 680.484375 C 783.3125 726.558594 763.359375 754.230469 714.992188 757.007812 C 714.96875 755.851562 714.945312 754.703125 714.945312 753.527344 L 714.925781 695.824219 C 717.246094 695.582031 719.511719 695.214844 721.695312 694.695312 C 756.925781 689.324219 794.980469 662.015625 795.230469 614.753906 L 795.230469 614.28125 C 794.980469 567.003906 756.964844 539.703125 721.746094 534.335938 C 719.523438 533.808594 717.21875 533.4375 714.863281 533.195312 L 714.839844 472.03125 C 763.050781 475.003906 784.203125 504.84375 800.558594 548.542969 C 805.265625 561.105469 813.214844 569.859375 822.949219 573.191406 C 825.777344 574.164062 828.6875 574.65625 831.597656 574.65625 C 836.171875 574.65625 840.585938 573.425781 844.367188 571.097656 C 849.851562 567.710938 853.597656 562.109375 854.910156 555.320312 C 856.351562 547.824219 855.546875 535.464844 843.5 519.179688 C 823.433594 492.054688 790.695312 461.039062 714.847656 459.449219 C 715.425781 397.1875 813.785156 362.101562 814.789062 361.753906 C 816.90625 361.015625 818.328125 359.015625 818.328125 356.769531 L 818.328125 352.289062 C 818.328125 350.765625 817.09375 349.527344 815.566406 349.527344 L 714.816406 349.027344 L 714.816406 341.695312 C 741.128906 338.644531 761.558594 316.296875 761.558594 289.167969 C 761.558594 259.953125 737.875 236.269531 708.660156 236.269531 C 679.449219 236.269531 655.765625 259.953125 655.765625 289.167969 C 655.765625 316.207031 676.058594 338.492188 702.246094 341.660156 L 702.246094 349.027344 L 603.800781 349.53125 C 602.277344 349.53125 601.042969 350.765625 601.042969 352.292969 L 601.042969 358.03125 C 601.042969 359.703125 602.09375 361.191406 603.667969 361.746094 C 604.652344 362.09375 701.800781 397.078125 702.253906 459.566406 C 696.15625 459.914062 690.25 460.757812 684.632812 462.089844 C 684.554688 462.109375 684.476562 462.125 684.398438 462.136719 C 617.320312 472.363281 544.910156 524.269531 544.429688 614.054688 L 544.429688 614.960938 C 544.910156 704.761719 617.246094 756.648438 684.257812 766.859375 C 684.332031 766.871094 684.410156 766.882812 684.484375 766.902344 C 689.9375 768.195312 695.632812 769.007812 701.472656 769.390625 C 692.839844 861.195312 608.0625 872.257812 571.136719 872.257812 C 521.671875 872.257812 421.082031 832.464844 415.175781 710.722656 C 415.015625 707.390625 412.242188 704.789062 408.910156 704.789062 C 405.308594 704.789062 402.449219 707.8125 402.621094 711.410156 C 408.941406 842.097656 517.679688 884.832031 571.261719 884.832031 L 571.488281 884.832031 C 644.253906 884.832031 678.246094 932.035156 692.035156 960.171875 C 697.003906 970.320312 700.222656 981.464844 701.535156 992.914062 C 701.941406 996.464844 704.886719 999.171875 708.460938 999.171875 C 712.050781 999.171875 715.003906 996.4375 715.390625 992.867188 C 716.609375 981.628906 719.609375 970.734375 724.410156 960.941406 C 738.714844 931.757812 771.996094 884.832031 845.949219 884.832031 L 846.175781 884.832031 C 899.640625 884.832031 1008.382812 842.101562 1014.703125 711.410156 C 1014.875 707.8125 1012.011719 704.789062 1008.414062 704.789062 "/>
</svg>
