<?xml version="1.0" encoding="UTF-8"?>
<svg xmlns="http://www.w3.org/2000/svg" xmlns:xlink="http://www.w3.org/1999/xlink" width="1417.32pt" height="1417.32pt" viewBox="0 0 1417.32 1417.32">
<path fill-rule="nonzero" fill="rgb(62.182617%, 63.412476%, 63.853455%)" fill-opacity="1" d="M 0 1417.320312 L 1417.324219 1417.320312 L 1417.324219 -0.00390625 L 0 -0.00390625 Z M 0 1417.320312 "/>
<path fill-rule="nonzero" fill="rgb(100%, 100%, 100%)" fill-opacity="1" d="M 354.332031 799.992188 C 351.691406 796.40625 347.472656 794.578125 343.191406 794.578125 C 333.246094 794.578125 326.195312 803.328125 326.195312 813.085938 C 326.195312 823.410156 333.183594 831.59375 343.191406 831.59375 C 348.605469 831.59375 352.949219 829.390625 356.097656 825.359375 L 360.0625 828.699219 C 356.097656 834.050781 350.304688 836.503906 343.191406 836.503906 C 330.414062 836.503906 320.53125 826.621094 320.53125 813.085938 C 320.53125 799.992188 329.972656 789.671875 343.191406 789.671875 C 349.234375 789.671875 355.152344 791.746094 358.929688 796.65625 Z M 354.332031 799.992188 "/>
<path fill-rule="nonzero" fill="rgb(100%, 100%, 100%)" fill-opacity="1" d="M 418.339844 813.085938 C 418.339844 802.824219 411.164062 794.578125 400.714844 794.578125 C 390.265625 794.578125 383.089844 802.824219 383.089844 813.085938 C 383.089844 823.347656 390.265625 831.59375 400.714844 831.59375 C 411.164062 831.59375 418.339844 823.347656 418.339844 813.085938 M 377.421875 813.085938 C 377.421875 799.617188 387.179688 789.671875 400.714844 789.671875 C 414.25 789.671875 424.007812 799.617188 424.007812 813.085938 C 424.007812 826.558594 414.25 836.503906 400.714844 836.503906 C 387.179688 836.503906 377.421875 826.558594 377.421875 813.085938 "/>
<path fill-rule="nonzero" fill="rgb(100%, 100%, 100%)" fill-opacity="1" d="M 445.082031 790.804688 L 451.753906 790.804688 L 477.5625 827.816406 L 477.6875 827.816406 L 477.6875 790.804688 L 482.976562 790.804688 L 482.976562 835.371094 L 476.300781 835.371094 L 450.492188 798.355469 L 450.367188 798.355469 L 450.367188 835.371094 L 445.082031 835.371094 Z M 445.082031 790.804688 "/>
<path fill-rule="nonzero" fill="rgb(100%, 100%, 100%)" fill-opacity="1" d="M 527.785156 798.671875 C 526.019531 795.839844 522.875 794.578125 519.664062 794.578125 C 515.007812 794.578125 510.15625 796.78125 510.15625 802.070312 C 510.15625 806.160156 512.425781 807.988281 519.539062 810.253906 C 526.464844 812.457031 532.882812 814.722656 532.882812 823.472656 C 532.882812 832.347656 525.265625 836.503906 517.207031 836.503906 C 512.046875 836.503906 506.507812 834.804688 503.484375 830.335938 L 508.019531 826.621094 C 509.90625 829.894531 513.683594 831.59375 517.523438 831.59375 C 522.054688 831.59375 527.21875 828.949219 527.21875 823.851562 C 527.21875 818.375 523.503906 817.429688 515.574219 814.785156 C 509.277344 812.707031 504.492188 809.941406 504.492188 802.511719 C 504.492188 793.949219 511.859375 789.671875 519.664062 789.671875 C 524.636719 789.671875 528.855469 791.054688 532.125 794.894531 Z M 527.785156 798.671875 "/>
<path fill-rule="nonzero" fill="rgb(100%, 100%, 100%)" fill-opacity="1" d="M 584.113281 795.714844 L 569.382812 795.714844 L 569.382812 835.371094 L 564.09375 835.371094 L 564.09375 795.714844 L 549.363281 795.714844 L 549.363281 790.804688 L 584.113281 790.804688 Z M 584.113281 795.714844 "/>
<path fill-rule="nonzero" fill="rgb(100%, 100%, 100%)" fill-opacity="1" d="M 608.210938 810.441406 L 612.933594 810.441406 C 618.789062 810.441406 626.402344 810.441406 626.402344 803.078125 C 626.402344 796.65625 620.804688 795.714844 615.640625 795.714844 L 608.210938 795.714844 Z M 602.925781 790.800781 L 614.316406 790.800781 C 622.941406 790.800781 632.070312 792.0625 632.070312 803.078125 C 632.070312 809.5625 627.851562 813.78125 620.929688 814.847656 L 633.578125 835.371094 L 627.097656 835.371094 L 615.011719 815.351562 L 608.210938 815.351562 L 608.210938 835.371094 L 602.925781 835.371094 Z M 602.925781 790.800781 "/>
<path fill-rule="nonzero" fill="rgb(100%, 100%, 100%)" fill-opacity="1" d="M 687.390625 818.375 C 687.390625 828.066406 682.859375 836.503906 670.582031 836.503906 C 658.308594 836.503906 653.777344 828.066406 653.777344 818.375 L 653.777344 790.804688 L 659.0625 790.804688 L 659.0625 817.617188 C 659.0625 824.792969 661.710938 831.59375 670.582031 831.59375 C 679.457031 831.59375 682.105469 824.792969 682.105469 817.617188 L 682.105469 790.804688 L 687.390625 790.804688 Z M 687.390625 818.375 "/>
<path fill-rule="nonzero" fill="rgb(100%, 100%, 100%)" fill-opacity="1" d="M 742.082031 799.992188 C 739.4375 796.40625 735.21875 794.578125 730.9375 794.578125 C 720.992188 794.578125 713.941406 803.328125 713.941406 813.085938 C 713.941406 823.410156 720.929688 831.59375 730.9375 831.59375 C 736.351562 831.59375 740.695312 829.390625 743.84375 825.359375 L 747.808594 828.699219 C 743.84375 834.050781 738.050781 836.503906 730.9375 836.503906 C 718.160156 836.503906 708.277344 826.621094 708.277344 813.085938 C 708.277344 799.992188 717.71875 789.671875 730.9375 789.671875 C 736.980469 789.671875 742.898438 791.746094 746.675781 796.65625 Z M 742.082031 799.992188 "/>
<path fill-rule="nonzero" fill="rgb(100%, 100%, 100%)" fill-opacity="1" d="M 797.652344 795.714844 L 782.921875 795.714844 L 782.921875 835.371094 L 777.636719 835.371094 L 777.636719 795.714844 L 762.902344 795.714844 L 762.902344 790.804688 L 797.652344 790.804688 Z M 797.652344 795.714844 "/>
<path fill-rule="nonzero" fill="rgb(100%, 100%, 100%)" fill-opacity="1" d="M 816.464844 790.804688 L 821.75 790.804688 L 821.75 835.371094 L 816.464844 835.371094 Z M 816.464844 790.804688 "/>
<path fill-rule="nonzero" fill="rgb(100%, 100%, 100%)" fill-opacity="1" d="M 883.75 813.085938 C 883.75 802.824219 876.574219 794.578125 866.125 794.578125 C 855.675781 794.578125 848.496094 802.824219 848.496094 813.085938 C 848.496094 823.347656 855.675781 831.59375 866.125 831.59375 C 876.574219 831.59375 883.75 823.347656 883.75 813.085938 M 842.832031 813.085938 C 842.832031 799.617188 852.589844 789.671875 866.125 789.671875 C 879.660156 789.671875 889.414062 799.617188 889.414062 813.085938 C 889.414062 826.558594 879.660156 836.503906 866.125 836.503906 C 852.589844 836.503906 842.832031 826.558594 842.832031 813.085938 "/>
<path fill-rule="nonzero" fill="rgb(100%, 100%, 100%)" fill-opacity="1" d="M 910.492188 790.804688 L 917.164062 790.804688 L 942.972656 827.816406 L 943.097656 827.816406 L 943.097656 790.804688 L 948.386719 790.804688 L 948.386719 835.371094 L 941.714844 835.371094 L 915.902344 798.355469 L 915.777344 798.355469 L 915.777344 835.371094 L 910.492188 835.371094 Z M 910.492188 790.804688 "/>
<path fill-rule="nonzero" fill="rgb(100%, 100%, 100%)" fill-opacity="1" d="M 1033.347656 799.992188 C 1030.703125 796.40625 1026.488281 794.578125 1022.207031 794.578125 C 1012.261719 794.578125 1005.210938 803.328125 1005.210938 813.085938 C 1005.210938 823.410156 1012.199219 831.59375 1022.207031 831.59375 C 1027.617188 831.59375 1031.964844 829.390625 1035.113281 825.359375 L 1039.078125 828.699219 C 1035.113281 834.050781 1029.320312 836.503906 1022.207031 836.503906 C 1009.425781 836.503906 999.542969 826.621094 999.542969 813.085938 C 999.542969 799.992188 1008.988281 789.671875 1022.207031 789.671875 C 1028.25 789.671875 1034.167969 791.746094 1037.945312 796.65625 Z M 1033.347656 799.992188 "/>
<path fill-rule="nonzero" fill="rgb(100%, 100%, 100%)" fill-opacity="1" d="M 1097.355469 813.085938 C 1097.355469 802.824219 1090.179688 794.578125 1079.730469 794.578125 C 1069.28125 794.578125 1062.101562 802.824219 1062.101562 813.085938 C 1062.101562 823.347656 1069.28125 831.59375 1079.730469 831.59375 C 1090.179688 831.59375 1097.355469 823.347656 1097.355469 813.085938 M 1056.4375 813.085938 C 1056.4375 799.617188 1066.195312 789.671875 1079.730469 789.671875 C 1093.261719 789.671875 1103.023438 799.617188 1103.023438 813.085938 C 1103.023438 826.558594 1093.261719 836.503906 1079.730469 836.503906 C 1066.195312 836.503906 1056.4375 826.558594 1056.4375 813.085938 "/>
<path fill-rule="nonzero" fill="rgb(100%, 100%, 100%)" fill-opacity="1" d="M 1131.082031 831.972656 C 1131.082031 834.046875 1129.257812 835.746094 1127.304688 835.746094 C 1125.351562 835.746094 1123.527344 834.046875 1123.527344 831.972656 C 1123.527344 829.894531 1125.226562 828.195312 1127.304688 828.195312 C 1129.382812 828.195312 1131.082031 829.894531 1131.082031 831.972656 "/>
<path fill-rule="nonzero" fill="rgb(100%, 100%, 100%)" fill-opacity="1" d="M 401.148438 677.183594 L 463.167969 677.183594 L 434.191406 605.84375 L 430.558594 605.84375 Z M 482.917969 725.414062 L 468.382812 689.582031 L 396.144531 689.582031 L 381.8125 725.414062 L 364.1875 725.414062 L 425.953125 585.253906 L 440.617188 585.253906 L 500.597656 725.414062 Z M 482.917969 725.414062 "/>
<path fill-rule="nonzero" fill="rgb(100%, 100%, 100%)" fill-opacity="1" d="M 573.085938 649.132812 L 601.28125 649.132812 C 609.570312 649.132812 634.800781 649.132812 634.800781 623.394531 C 634.800781 597.652344 609.570312 597.652344 601.28125 597.652344 L 573.085938 597.652344 Z M 558.226562 725.414062 L 558.226562 585.253906 L 606.8125 585.253906 C 646.59375 585.253906 650.886719 611.925781 650.886719 623.394531 C 650.886719 634.859375 646.59375 661.535156 606.8125 661.535156 L 573.085938 661.535156 L 573.085938 725.414062 Z M 558.226562 725.414062 "/>
<path fill-rule="nonzero" fill="rgb(100%, 100%, 100%)" fill-opacity="1" d="M 742.699219 725.414062 L 742.699219 598.882812 L 696.015625 598.882812 L 696.015625 585.253906 L 804.238281 585.253906 L 804.238281 598.882812 L 757.554688 598.882812 L 757.554688 725.414062 Z M 742.699219 725.414062 "/>
<path fill-rule="nonzero" fill="rgb(100%, 100%, 100%)" fill-opacity="1" d="M 863.65625 677.183594 L 925.671875 677.183594 L 896.699219 605.84375 L 893.066406 605.84375 Z M 945.425781 725.414062 L 930.890625 689.582031 L 858.648438 689.582031 L 844.320312 725.414062 L 826.695312 725.414062 L 888.457031 585.253906 L 903.121094 585.253906 L 963.105469 725.414062 Z M 945.425781 725.414062 "/>
<path fill-rule="nonzero" fill="rgb(100%, 100%, 100%)" fill-opacity="1" d="M 1020.734375 585.253906 L 1035.59375 585.253906 L 1035.59375 725.414062 L 1020.734375 725.414062 Z M 1020.734375 585.253906 "/>
<path fill-rule="nonzero" fill="rgb(100%, 100%, 100%)" fill-opacity="1" d="M 1210.019531 725.414062 L 1129.351562 606.253906 L 1125.269531 606.253906 L 1125.269531 725.414062 L 1110.414062 725.414062 L 1110.414062 585.253906 L 1132.53125 585.253906 L 1212.378906 704.414062 L 1216.46875 704.414062 L 1216.46875 585.253906 L 1231.328125 585.253906 L 1231.328125 725.414062 Z M 1210.019531 725.414062 "/>
<path fill-rule="nonzero" fill="rgb(81.443787%, 82.73468%, 83.198547%)" fill-opacity="1" d="M 299.527344 592.453125 C 299.085938 592.453125 298.660156 592.664062 298.394531 593.046875 C 298.019531 593.585938 298.074219 594.3125 298.527344 594.789062 C 306.140625 602.777344 310.679688 613.320312 313.78125 621.609375 C 315.453125 626.074219 318.074219 629.113281 321.164062 630.167969 C 321.945312 630.4375 322.746094 630.574219 323.539062 630.574219 C 324.71875 630.574219 325.84375 630.269531 326.789062 629.683594 C 328.125 628.859375 329.011719 627.492188 329.347656 625.738281 C 329.746094 623.675781 329.691406 619.238281 324.855469 612.703125 C 320.066406 606.230469 312.917969 598.089844 300.074219 592.566406 C 299.898438 592.492188 299.710938 592.453125 299.527344 592.453125 M 224.863281 598.125 C 224.617188 598.125 224.371094 598.191406 224.148438 598.324219 C 209.277344 607.339844 191.535156 624.511719 191.445312 655.117188 C 191.535156 685.730469 209.277344 702.902344 224.148438 711.914062 C 224.371094 712.050781 224.617188 712.117188 224.863281 712.117188 C 225.242188 712.117188 225.621094 711.957031 225.890625 711.660156 C 226.335938 711.164062 226.363281 710.425781 225.960938 709.898438 C 215.527344 696.214844 209.738281 676.835938 209.65625 655.335938 L 209.65625 654.902344 C 209.738281 633.40625 215.527344 614.027344 225.960938 600.34375 C 226.363281 599.816406 226.335938 599.074219 225.890625 598.582031 C 225.621094 598.28125 225.242188 598.125 224.863281 598.125 M 323.542969 679.664062 C 322.746094 679.664062 321.945312 679.800781 321.164062 680.070312 C 318.074219 681.128906 315.453125 684.167969 313.78125 688.628906 C 310.675781 696.921875 306.136719 707.464844 298.53125 715.453125 C 298.078125 715.925781 298.019531 716.65625 298.394531 717.195312 C 298.660156 717.574219 299.089844 717.785156 299.53125 717.785156 C 299.714844 717.785156 299.898438 717.75 300.074219 717.671875 C 312.921875 712.152344 320.066406 704.011719 324.855469 697.539062 C 329.691406 691.003906 329.746094 686.566406 329.347656 684.503906 C 329.011719 682.746094 328.125 681.382812 326.789062 680.554688 C 325.84375 679.972656 324.722656 679.664062 323.542969 679.664062 M 264.691406 729.425781 C 260.667969 729.425781 256.761719 728.984375 253.078125 728.113281 C 253.039062 728.101562 253.003906 728.09375 252.964844 728.089844 C 220.871094 723.199219 186.222656 698.347656 185.996094 655.335938 L 185.996094 654.902344 C 186.222656 611.898438 220.90625 587.035156 253.035156 582.136719 C 253.070312 582.132812 253.109375 582.125 253.144531 582.117188 C 256.78125 581.25 260.664062 580.8125 264.691406 580.8125 C 303.121094 580.8125 319.375 596.121094 329.238281 609.460938 C 335.011719 617.261719 335.394531 623.179688 334.703125 626.769531 C 334.074219 630.019531 332.28125 632.703125 329.65625 634.324219 C 327.84375 635.441406 325.730469 636.03125 323.539062 636.03125 C 322.144531 636.03125 320.75 635.792969 319.394531 635.328125 C 314.734375 633.734375 310.925781 629.539062 308.671875 623.523438 C 300.410156 601.449219 289.605469 586.75 263.726562 586.75 C 260.773438 586.75 257.691406 586.972656 254.558594 587.414062 C 254.515625 587.417969 254.476562 587.425781 254.433594 587.4375 C 227.347656 593.855469 215.164062 626.054688 215.105469 655.117188 C 215.164062 684.1875 227.371094 716.390625 254.511719 722.816406 C 254.554688 722.828125 254.597656 722.835938 254.640625 722.839844 C 257.730469 723.273438 260.785156 723.492188 263.726562 723.492188 C 289.804688 723.492188 299.953125 710.007812 308.671875 686.71875 C 310.925781 680.699219 314.734375 676.507812 319.394531 674.910156 C 320.753906 674.445312 322.148438 674.210938 323.542969 674.210938 C 325.734375 674.210938 327.847656 674.800781 329.65625 675.914062 C 332.28125 677.535156 334.074219 680.21875 334.703125 683.472656 C 335.394531 687.0625 335.011719 692.980469 329.238281 700.78125 C 319.371094 714.117188 303.117188 729.425781 264.691406 729.425781 "/>
</svg>
