<?xml version="1.0" encoding="UTF-8"?>
<svg xmlns="http://www.w3.org/2000/svg" xmlns:xlink="http://www.w3.org/1999/xlink" width="1417.32pt" height="1417.32pt" viewBox="0 0 1417.32 1417.32">
<path fill-rule="nonzero" fill="rgb(13.729858%, 12.159729%, 12.548828%)" fill-opacity="1" d="M 802.34375 1040.25 C 772.8125 1053.585938 748.015625 1075.300781 728.636719 1104.796875 L 716.25 1123.648438 L 716.25 958.179688 L 728.492188 975.34375 C 745.4375 999.105469 770.089844 1016.730469 801.78125 1027.730469 L 817.777344 1033.28125 Z M 700.640625 1123.492188 L 688.265625 1104.816406 C 668.53125 1075.019531 643.871094 1053.296875 614.976562 1040.25 L 599.539062 1033.28125 L 615.539062 1027.730469 C 636.882812 1020.316406 666.855469 1005.210938 688.417969 975.316406 L 700.640625 958.375 Z M 655.148438 782.519531 C 643.007812 775.695312 635.609375 767.082031 630.371094 760 C 624.410156 751.945312 624.296875 746.710938 624.761719 744.308594 C 625.097656 742.550781 625.914062 741.257812 627.183594 740.472656 C 628.742188 739.511719 630.851562 739.351562 632.851562 740.03125 C 636.347656 741.230469 639.375 744.828125 641.371094 750.164062 C 644.828125 759.398438 649.601562 770.695312 656.957031 780.5 C 657.851562 781.6875 656.445312 783.25 655.148438 782.519531 M 656.953125 628.851562 C 649.601562 638.652344 644.828125 649.949219 641.371094 659.183594 C 639.375 664.519531 636.347656 668.117188 632.851562 669.3125 C 630.859375 670 628.75 669.835938 627.179688 668.875 C 625.910156 668.089844 625.097656 666.800781 624.761719 665.039062 C 624.296875 662.636719 624.410156 657.402344 630.371094 649.34375 C 635.609375 642.265625 643.011719 633.652344 655.144531 626.832031 C 656.441406 626.101562 657.847656 627.660156 656.953125 628.851562 M 682.695312 880.230469 C 682.582031 880.214844 682.472656 880.191406 682.363281 880.167969 C 612.007812 863.511719 580.363281 780.027344 580.207031 704.671875 C 580.359375 629.324219 611.945312 545.851562 682.160156 529.21875 C 682.269531 529.191406 682.378906 529.171875 682.488281 529.15625 C 688.664062 528.285156 694.773438 527.75 700.710938 527.539062 L 700.695312 603.507812 C 654.300781 605.589844 633.769531 625.210938 621.027344 642.433594 C 612.855469 653.476562 612.339844 662.019531 613.34375 667.238281 C 614.300781 672.1875 617.046875 676.28125 621.078125 678.765625 C 625.582031 681.542969 631.347656 682.117188 636.617188 680.3125 C 643.460938 677.964844 649.019531 671.910156 652.257812 663.257812 C 662.414062 636.117188 674.085938 619.300781 700.695312 616.164062 L 700.652344 793.128906 C 674.15625 789.722656 661.875 771.78125 652.257812 746.089844 C 649.019531 737.4375 643.460938 731.382812 636.617188 729.035156 C 631.351562 727.230469 625.585938 727.804688 621.078125 730.582031 C 617.046875 733.066406 614.300781 737.160156 613.34375 742.105469 C 612.339844 747.328125 612.855469 755.871094 621.027344 766.914062 C 633.765625 784.132812 654.289062 803.746094 700.652344 805.835938 L 700.632812 877.535156 C 700.632812 878.980469 700.605469 880.390625 700.578125 881.808594 C 694.726562 881.597656 688.734375 881.070312 682.695312 880.230469 M 608.167969 851.238281 C 607.46875 852.019531 606.492188 852.425781 605.503906 852.425781 C 604.867188 852.425781 604.226562 852.257812 603.648438 851.90625 C 565.105469 828.539062 519.109375 784.023438 518.875 704.664062 C 519.109375 625.320312 565.105469 580.808594 603.648438 557.441406 C 604.226562 557.089844 604.867188 556.921875 605.503906 556.921875 C 606.492188 556.921875 607.46875 557.328125 608.167969 558.105469 C 609.320312 559.386719 609.398438 561.304688 608.355469 562.671875 C 581.308594 598.148438 566.296875 648.382812 566.082031 704.109375 L 566.082031 705.234375 C 566.296875 760.96875 581.308594 811.199219 608.355469 846.675781 C 609.398438 848.042969 609.320312 849.960938 608.167969 851.238281 M 639.613281 403.738281 L 619.652344 391.269531 L 798.632812 391.269531 L 778.386719 403.757812 C 748.792969 422.015625 727.273438 442.378906 714.429688 464.285156 L 708.570312 474.277344 L 702.769531 464.253906 C 690.089844 442.355469 668.839844 421.996094 639.613281 403.738281 M 659.128906 300.710938 C 659.128906 273.261719 681.378906 251.011719 708.824219 251.011719 C 736.269531 251.011719 758.519531 273.261719 758.519531 300.710938 C 758.519531 328.15625 736.269531 350.402344 708.824219 350.402344 C 681.378906 350.402344 659.128906 328.15625 659.128906 300.710938 M 722.050781 616.429688 C 757.09375 624.726562 772.871094 666.734375 772.949219 704.679688 C 772.871094 742.613281 757.125 784.613281 722.125 792.902344 C 720.214844 793.171875 718.3125 793.367188 716.433594 793.511719 L 716.367188 615.828125 C 718.242188 615.96875 720.140625 616.164062 722.050781 616.429688 M 769.277344 635.554688 C 786.613281 648.203125 804.425781 669.710938 804.53125 704.683594 C 804.425781 739.523438 786.730469 761 769.335938 773.695312 C 768.117188 774.585938 766.539062 773.140625 767.328125 771.859375 C 778.394531 753.921875 784.464844 730.535156 784.566406 704.972656 L 784.566406 704.386719 C 784.464844 678.765625 778.375 655.34375 767.269531 637.394531 C 766.480469 636.113281 768.058594 634.667969 769.277344 635.554688 M 796.121094 543.757812 C 796.808594 542.769531 797.917969 542.222656 799.0625 542.222656 C 799.535156 542.222656 800.019531 542.316406 800.476562 542.511719 C 833.777344 556.832031 852.300781 577.933594 864.71875 594.714844 C 877.253906 611.65625 877.394531 623.15625 876.363281 628.5 C 875.488281 633.054688 873.195312 636.59375 869.730469 638.734375 C 867.277344 640.246094 864.367188 641.046875 861.308594 641.046875 C 859.253906 641.046875 857.179688 640.691406 855.144531 639.992188 C 847.140625 637.253906 840.339844 629.375 836.003906 617.804688 C 827.964844 596.3125 816.203125 568.988281 796.46875 548.273438 C 795.292969 547.042969 795.152344 545.152344 796.121094 543.757812 M 796.472656 861.070312 C 816.191406 840.375 827.960938 813.042969 836.011719 791.546875 C 840.339844 779.976562 847.136719 772.09375 855.144531 769.355469 C 857.171875 768.65625 859.25 768.304688 861.316406 768.304688 C 864.371094 768.304688 867.277344 769.101562 869.734375 770.609375 C 873.195312 772.753906 875.488281 776.292969 876.363281 780.851562 C 877.394531 786.195312 877.25 797.695312 864.71875 814.636719 C 852.300781 831.417969 833.78125 852.515625 800.480469 866.832031 C 800.019531 867.027344 799.542969 867.125 799.066406 867.125 C 797.921875 867.125 796.8125 866.574219 796.125 865.585938 C 795.15625 864.191406 795.300781 862.304688 796.472656 861.070312 M 1080.851562 816.765625 C 1076.710938 816.765625 1073.265625 820 1073.066406 824.136719 C 1065.730469 975.296875 940.832031 1024.707031 879.40625 1024.707031 C 832.980469 1024.707031 728.230469 1011.785156 717.390625 897.191406 C 810.824219 894.960938 851.257812 856.597656 876.082031 823.042969 C 891.039062 802.820312 892.042969 787.480469 890.25 778.171875 C 888.621094 769.738281 883.972656 762.78125 877.160156 758.582031 C 872.472656 755.6875 866.992188 754.160156 861.320312 754.160156 C 857.703125 754.160156 854.085938 754.773438 850.5625 755.976562 C 838.480469 760.117188 828.609375 770.988281 822.765625 786.589844 C 801.351562 843.796875 776.578125 878.15625 716.523438 881.605469 C 716.496094 880.171875 716.464844 878.742188 716.464844 877.285156 L 716.4375 805.632812 C 719.320312 805.335938 722.136719 804.878906 724.84375 804.234375 C 768.585938 797.566406 815.835938 763.660156 816.148438 704.976562 L 816.148438 704.386719 C 815.835938 645.6875 768.632812 611.785156 724.910156 605.125 C 722.152344 604.472656 719.285156 604.007812 716.363281 603.710938 L 716.332031 527.761719 C 776.195312 531.457031 802.457031 568.503906 822.765625 622.761719 C 828.609375 638.363281 838.480469 649.230469 850.566406 653.371094 C 854.078125 654.574219 857.695312 655.1875 861.308594 655.1875 C 866.984375 655.1875 872.464844 653.660156 877.160156 650.769531 C 883.972656 646.566406 888.621094 639.609375 890.25 631.179688 C 892.042969 621.871094 891.039062 606.527344 876.082031 586.308594 C 851.167969 552.628906 810.519531 514.113281 716.34375 512.140625 C 717.058594 434.835938 839.191406 391.273438 840.433594 390.839844 C 843.066406 389.921875 844.828125 387.4375 844.828125 384.648438 L 844.828125 379.085938 C 844.828125 377.191406 843.292969 375.65625 841.402344 375.65625 L 716.304688 375.03125 L 716.304688 365.929688 C 748.976562 362.140625 774.339844 334.394531 774.339844 300.710938 C 774.339844 264.4375 744.933594 235.03125 708.660156 235.03125 C 672.390625 235.03125 642.984375 264.4375 642.984375 300.710938 C 642.984375 334.28125 668.183594 361.957031 700.695312 365.890625 L 700.695312 375.03125 L 578.460938 375.660156 C 576.570312 375.660156 575.035156 377.195312 575.035156 379.089844 L 575.035156 386.214844 C 575.035156 388.289062 576.339844 390.136719 578.292969 390.824219 C 579.515625 391.257812 700.144531 434.699219 700.703125 512.285156 C 693.132812 512.71875 685.800781 513.765625 678.824219 515.421875 C 678.726562 515.445312 678.632812 515.464844 678.535156 515.476562 C 595.246094 528.175781 505.335938 592.625 504.746094 704.109375 L 504.746094 705.230469 C 505.335938 816.730469 595.15625 881.160156 678.359375 893.835938 C 678.453125 893.851562 678.546875 893.867188 678.644531 893.890625 C 685.414062 895.492188 692.484375 896.507812 699.734375 896.980469 C 689.015625 1010.972656 583.75 1024.707031 537.90625 1024.707031 C 476.484375 1024.707031 351.585938 975.296875 344.253906 824.132812 C 344.054688 820 340.609375 816.765625 336.472656 816.765625 C 332 816.765625 328.449219 820.523438 328.664062 824.988281 C 336.511719 987.261719 471.527344 1040.316406 538.0625 1040.316406 L 538.339844 1040.316406 C 628.691406 1040.316406 670.894531 1098.929688 688.015625 1133.867188 C 694.1875 1146.464844 698.183594 1160.300781 699.8125 1174.519531 C 700.316406 1178.925781 703.972656 1182.285156 708.410156 1182.285156 C 712.867188 1182.285156 716.539062 1178.894531 717.019531 1174.460938 C 718.53125 1160.507812 722.253906 1146.980469 728.214844 1134.820312 C 745.980469 1098.585938 787.300781 1040.316406 879.121094 1040.316406 L 879.40625 1040.316406 C 945.792969 1040.316406 1080.808594 987.261719 1088.65625 824.988281 C 1088.871094 820.523438 1085.320312 816.765625 1080.851562 816.765625 "/>
</svg>
