<?xml version="1.0" encoding="UTF-8"?>
<svg xmlns="http://www.w3.org/2000/svg" xmlns:xlink="http://www.w3.org/1999/xlink" width="1417.32pt" height="1417.32pt" viewBox="0 0 1417.32 1417.32">
<path fill-rule="nonzero" fill="rgb(13.729858%, 12.159729%, 12.548828%)" fill-opacity="1" d="M 621.105469 756.839844 C 619.328125 754.425781 616.492188 753.195312 613.613281 753.195312 C 606.921875 753.195312 602.175781 759.082031 602.175781 765.644531 C 602.175781 772.589844 606.878906 778.09375 613.613281 778.09375 C 617.253906 778.09375 620.175781 776.613281 622.292969 773.902344 L 624.960938 776.148438 C 622.292969 779.746094 618.394531 781.398438 613.613281 781.398438 C 605.015625 781.398438 598.367188 774.75 598.367188 765.644531 C 598.367188 756.839844 604.71875 749.894531 613.613281 749.894531 C 617.675781 749.894531 621.660156 751.289062 624.199219 754.59375 Z M 621.105469 756.839844 "/>
<path fill-rule="nonzero" fill="rgb(13.729858%, 12.159729%, 12.548828%)" fill-opacity="1" d="M 664.164062 765.644531 C 664.164062 758.742188 659.335938 753.195312 652.308594 753.195312 C 645.277344 753.195312 640.449219 758.742188 640.449219 765.644531 C 640.449219 772.546875 645.277344 778.09375 652.308594 778.09375 C 659.335938 778.09375 664.164062 772.546875 664.164062 765.644531 M 636.640625 765.644531 C 636.640625 756.582031 643.203125 749.894531 652.308594 749.894531 C 661.414062 749.894531 667.976562 756.582031 667.976562 765.644531 C 667.976562 774.707031 661.414062 781.398438 652.308594 781.398438 C 643.203125 781.398438 636.640625 774.707031 636.640625 765.644531 "/>
<path fill-rule="nonzero" fill="rgb(13.729858%, 12.159729%, 12.548828%)" fill-opacity="1" d="M 682.152344 750.65625 L 686.640625 750.65625 L 704.003906 775.554688 L 704.089844 775.554688 L 704.089844 750.65625 L 707.644531 750.65625 L 707.644531 780.636719 L 703.15625 780.636719 L 685.792969 755.738281 L 685.710938 755.738281 L 685.710938 780.636719 L 682.152344 780.636719 Z M 682.152344 750.65625 "/>
<path fill-rule="nonzero" fill="rgb(13.729858%, 12.159729%, 12.548828%)" fill-opacity="1" d="M 737.789062 755.949219 C 736.601562 754.042969 734.484375 753.195312 732.324219 753.195312 C 729.191406 753.195312 725.929688 754.675781 725.929688 758.234375 C 725.929688 760.988281 727.457031 762.214844 732.242188 763.742188 C 736.898438 765.222656 741.21875 766.746094 741.21875 772.632812 C 741.21875 778.601562 736.09375 781.398438 730.675781 781.398438 C 727.199219 781.398438 723.476562 780.253906 721.441406 777.25 L 724.492188 774.75 C 725.761719 776.953125 728.304688 778.09375 730.886719 778.09375 C 733.933594 778.09375 737.40625 776.316406 737.40625 772.886719 C 737.40625 769.203125 734.910156 768.566406 729.574219 766.789062 C 725.339844 765.390625 722.121094 763.527344 722.121094 758.53125 C 722.121094 752.773438 727.074219 749.890625 732.324219 749.890625 C 735.671875 749.890625 738.507812 750.824219 740.710938 753.40625 Z M 737.789062 755.949219 "/>
<path fill-rule="nonzero" fill="rgb(13.729858%, 12.159729%, 12.548828%)" fill-opacity="1" d="M 775.679688 753.957031 L 765.773438 753.957031 L 765.773438 780.636719 L 762.214844 780.636719 L 762.214844 753.957031 L 752.304688 753.957031 L 752.304688 750.65625 L 775.679688 750.65625 Z M 775.679688 753.957031 "/>
<path fill-rule="nonzero" fill="rgb(13.729858%, 12.159729%, 12.548828%)" fill-opacity="1" d="M 791.894531 763.867188 L 795.070312 763.867188 C 799.007812 763.867188 804.128906 763.867188 804.128906 758.914062 C 804.128906 754.59375 800.363281 753.957031 796.890625 753.957031 L 791.894531 753.957031 Z M 788.335938 750.65625 L 796 750.65625 C 801.800781 750.65625 807.941406 751.503906 807.941406 758.914062 C 807.941406 763.273438 805.105469 766.109375 800.449219 766.832031 L 808.957031 780.636719 L 804.597656 780.636719 L 796.464844 767.171875 L 791.894531 767.171875 L 791.894531 780.636719 L 788.335938 780.636719 Z M 788.335938 750.65625 "/>
<path fill-rule="nonzero" fill="rgb(13.729858%, 12.159729%, 12.548828%)" fill-opacity="1" d="M 845.15625 769.203125 C 845.15625 775.722656 842.109375 781.398438 833.851562 781.398438 C 825.59375 781.398438 822.546875 775.722656 822.546875 769.203125 L 822.546875 750.65625 L 826.101562 750.65625 L 826.101562 768.695312 C 826.101562 773.519531 827.882812 778.09375 833.851562 778.09375 C 839.820312 778.09375 841.601562 773.519531 841.601562 768.695312 L 841.601562 750.65625 L 845.15625 750.65625 Z M 845.15625 769.203125 "/>
<path fill-rule="nonzero" fill="rgb(13.729858%, 12.159729%, 12.548828%)" fill-opacity="1" d="M 881.949219 756.839844 C 880.167969 754.425781 877.332031 753.195312 874.453125 753.195312 C 867.761719 753.195312 863.019531 759.082031 863.019531 765.644531 C 863.019531 772.589844 867.71875 778.09375 874.453125 778.09375 C 878.09375 778.09375 881.015625 776.613281 883.132812 773.902344 L 885.800781 776.148438 C 883.132812 779.746094 879.238281 781.398438 874.453125 781.398438 C 865.855469 781.398438 859.207031 774.75 859.207031 765.644531 C 859.207031 756.839844 865.558594 749.894531 874.453125 749.894531 C 878.515625 749.894531 882.5 751.289062 885.039062 754.59375 Z M 881.949219 756.839844 "/>
<path fill-rule="nonzero" fill="rgb(13.729858%, 12.159729%, 12.548828%)" fill-opacity="1" d="M 919.332031 753.957031 L 909.421875 753.957031 L 909.421875 780.636719 L 905.863281 780.636719 L 905.863281 753.957031 L 895.957031 753.957031 L 895.957031 750.65625 L 919.332031 750.65625 Z M 919.332031 753.957031 "/>
<path fill-rule="nonzero" fill="rgb(13.729858%, 12.159729%, 12.548828%)" fill-opacity="1" d="M 931.984375 750.65625 L 935.542969 750.65625 L 935.542969 780.636719 L 931.984375 780.636719 Z M 931.984375 750.65625 "/>
<path fill-rule="nonzero" fill="rgb(13.729858%, 12.159729%, 12.548828%)" fill-opacity="1" d="M 977.25 765.644531 C 977.25 758.742188 972.421875 753.195312 965.394531 753.195312 C 958.363281 753.195312 953.535156 758.742188 953.535156 765.644531 C 953.535156 772.546875 958.363281 778.09375 965.394531 778.09375 C 972.421875 778.09375 977.25 772.546875 977.25 765.644531 M 949.722656 765.644531 C 949.722656 756.582031 956.289062 749.894531 965.394531 749.894531 C 974.496094 749.894531 981.0625 756.582031 981.0625 765.644531 C 981.0625 774.707031 974.496094 781.398438 965.394531 781.398438 C 956.289062 781.398438 949.722656 774.707031 949.722656 765.644531 "/>
<path fill-rule="nonzero" fill="rgb(13.729858%, 12.159729%, 12.548828%)" fill-opacity="1" d="M 995.238281 750.65625 L 999.726562 750.65625 L 1017.089844 775.554688 L 1017.175781 775.554688 L 1017.175781 750.65625 L 1020.730469 750.65625 L 1020.730469 780.636719 L 1016.242188 780.636719 L 998.878906 755.738281 L 998.796875 755.738281 L 998.796875 780.636719 L 995.238281 780.636719 Z M 995.238281 750.65625 "/>
<path fill-rule="nonzero" fill="rgb(13.729858%, 12.159729%, 12.548828%)" fill-opacity="1" d="M 1077.886719 756.839844 C 1076.109375 754.425781 1073.269531 753.195312 1070.390625 753.195312 C 1063.699219 753.195312 1058.957031 759.082031 1058.957031 765.644531 C 1058.957031 772.589844 1063.65625 778.09375 1070.390625 778.09375 C 1074.03125 778.09375 1076.953125 776.613281 1079.070312 773.902344 L 1081.738281 776.148438 C 1079.070312 779.746094 1075.175781 781.398438 1070.390625 781.398438 C 1061.792969 781.398438 1055.144531 774.75 1055.144531 765.644531 C 1055.144531 756.839844 1061.496094 749.894531 1070.390625 749.894531 C 1074.457031 749.894531 1078.4375 751.289062 1080.976562 754.59375 Z M 1077.886719 756.839844 "/>
<path fill-rule="nonzero" fill="rgb(13.729858%, 12.159729%, 12.548828%)" fill-opacity="1" d="M 1120.945312 765.644531 C 1120.945312 758.742188 1116.117188 753.195312 1109.085938 753.195312 C 1102.054688 753.195312 1097.226562 758.742188 1097.226562 765.644531 C 1097.226562 772.546875 1102.054688 778.09375 1109.085938 778.09375 C 1116.117188 778.09375 1120.945312 772.546875 1120.945312 765.644531 M 1093.417969 765.644531 C 1093.417969 756.582031 1099.980469 749.894531 1109.085938 749.894531 C 1118.191406 749.894531 1124.753906 756.582031 1124.753906 765.644531 C 1124.753906 774.707031 1118.191406 781.398438 1109.085938 781.398438 C 1099.980469 781.398438 1093.417969 774.707031 1093.417969 765.644531 "/>
<path fill-rule="nonzero" fill="rgb(13.729858%, 12.159729%, 12.548828%)" fill-opacity="1" d="M 1143.632812 778.351562 C 1143.632812 779.746094 1142.402344 780.890625 1141.089844 780.890625 C 1139.777344 780.890625 1138.550781 779.746094 1138.550781 778.351562 C 1138.550781 776.953125 1139.695312 775.808594 1141.089844 775.808594 C 1142.488281 775.808594 1143.632812 776.953125 1143.632812 778.351562 "/>
<path fill-rule="nonzero" fill="rgb(13.729858%, 12.159729%, 12.548828%)" fill-opacity="1" d="M 562.730469 712.472656 C 532.597656 712.472656 513.941406 687.003906 513.941406 663.410156 C 513.941406 633.546875 534.289062 612.691406 563.417969 612.691406 C 576.644531 612.691406 588.582031 617.742188 595.667969 626.261719 L 586.78125 633.035156 C 581.15625 626.441406 572.175781 622.394531 563.003906 622.394531 C 541.15625 622.394531 525.296875 639.644531 525.296875 663.410156 C 525.296875 686.21875 541.15625 702.769531 563.003906 702.769531 C 573.566406 702.769531 582.445312 698.441406 588.761719 690.230469 L 597.742188 697 C 594.363281 701.171875 583.308594 712.472656 562.730469 712.472656 "/>
<path fill-rule="nonzero" fill="rgb(13.729858%, 12.159729%, 12.548828%)" fill-opacity="1" d="M 652.996094 677.011719 L 693.921875 677.011719 L 674.648438 629.554688 L 672.5625 629.554688 Z M 707.429688 709.992188 L 697.648438 685.886719 L 649.414062 685.886719 L 639.773438 709.992188 L 627.328125 709.992188 L 669.109375 615.171875 L 679.324219 615.171875 L 719.90625 709.992188 Z M 707.429688 709.992188 "/>
<path fill-rule="nonzero" fill="rgb(13.729858%, 12.159729%, 12.548828%)" fill-opacity="1" d="M 768.53125 658.144531 L 787.230469 658.144531 C 792.742188 658.144531 809.515625 658.144531 809.515625 641.09375 C 809.515625 624.046875 792.742188 624.046875 787.230469 624.046875 L 768.53125 624.046875 Z M 758.003906 709.992188 L 758.003906 615.171875 L 790.953125 615.171875 C 817.953125 615.171875 820.867188 633.300781 820.867188 641.09375 C 820.867188 648.890625 817.953125 667.019531 790.953125 667.019531 L 768.53125 667.019531 L 768.53125 709.992188 Z M 758.003906 709.992188 "/>
<path fill-rule="nonzero" fill="rgb(13.729858%, 12.159729%, 12.548828%)" fill-opacity="1" d="M 882.097656 709.992188 L 882.097656 624.875 L 850.695312 624.875 L 850.695312 615.171875 L 924.027344 615.171875 L 924.027344 624.875 L 892.621094 624.875 L 892.621094 709.992188 Z M 882.097656 709.992188 "/>
<path fill-rule="nonzero" fill="rgb(13.729858%, 12.159729%, 12.548828%)" fill-opacity="1" d="M 964.128906 677.011719 L 1005.054688 677.011719 L 985.78125 629.554688 L 983.695312 629.554688 Z M 1018.5625 709.992188 L 1008.78125 685.886719 L 960.546875 685.886719 L 950.90625 709.992188 L 938.457031 709.992188 L 980.242188 615.171875 L 990.457031 615.171875 L 1031.035156 709.992188 Z M 1018.5625 709.992188 "/>
<path fill-rule="nonzero" fill="rgb(13.729858%, 12.159729%, 12.548828%)" fill-opacity="1" d="M 1069.132812 615.171875 L 1079.660156 615.171875 L 1079.660156 709.992188 L 1069.132812 709.992188 Z M 1069.132812 615.171875 "/>
<path fill-rule="nonzero" fill="rgb(13.729858%, 12.159729%, 12.548828%)" fill-opacity="1" d="M 1196.59375 709.992188 L 1142.324219 629.832031 L 1139.988281 629.832031 L 1139.988281 709.992188 L 1129.460938 709.992188 L 1129.460938 615.171875 L 1144.75 615.171875 L 1198.464844 695.332031 L 1200.808594 695.332031 L 1200.808594 615.171875 L 1211.332031 615.171875 L 1211.332031 709.992188 Z M 1196.59375 709.992188 "/>
<path fill-rule="nonzero" fill="rgb(13.729858%, 12.159729%, 12.548828%)" fill-opacity="1" d="M 424.074219 861.324219 C 410.480469 867.460938 399.0625 877.460938 390.140625 891.039062 L 384.4375 899.71875 L 384.4375 823.539062 L 390.074219 831.441406 C 397.875 842.378906 409.226562 850.492188 423.8125 855.558594 L 431.179688 858.113281 Z M 377.25 899.648438 L 371.550781 891.050781 C 362.464844 877.332031 351.113281 867.332031 337.808594 861.324219 L 330.703125 858.113281 L 338.070312 855.558594 C 347.898438 852.144531 361.695312 845.191406 371.625 831.425781 L 377.25 823.628906 Z M 356.304688 742.664062 C 350.714844 739.523438 347.308594 735.554688 344.898438 732.296875 C 342.152344 728.589844 342.101562 726.175781 342.316406 725.070312 C 342.46875 724.261719 342.84375 723.667969 343.429688 723.304688 C 344.148438 722.863281 345.117188 722.789062 346.039062 723.101562 C 347.648438 723.65625 349.042969 725.308594 349.964844 727.765625 C 351.554688 732.019531 353.753906 737.21875 357.140625 741.734375 C 357.550781 742.28125 356.902344 743 356.304688 742.664062 M 357.136719 671.917969 C 353.75 676.429688 351.554688 681.628906 349.960938 685.878906 C 349.042969 688.335938 347.652344 689.992188 346.039062 690.542969 C 345.125 690.859375 344.152344 690.785156 343.429688 690.34375 C 342.84375 689.980469 342.46875 689.386719 342.316406 688.578125 C 342.101562 687.46875 342.152344 685.058594 344.898438 681.351562 C 347.308594 678.089844 350.71875 674.125 356.300781 670.988281 C 356.902344 670.652344 357.546875 671.367188 357.136719 671.917969 M 368.988281 787.648438 C 368.9375 787.640625 368.886719 787.632812 368.835938 787.621094 C 336.445312 779.953125 321.875 741.515625 321.800781 706.824219 C 321.875 672.132812 336.414062 633.703125 368.742188 626.046875 C 368.792969 626.03125 368.84375 626.023438 368.894531 626.015625 C 371.738281 625.617188 374.546875 625.367188 377.285156 625.269531 L 377.277344 660.246094 C 355.914062 661.207031 346.460938 670.238281 340.59375 678.167969 C 336.835938 683.253906 336.597656 687.1875 337.058594 689.589844 C 337.5 691.867188 338.765625 693.75 340.621094 694.894531 C 342.691406 696.175781 345.347656 696.4375 347.773438 695.605469 C 350.925781 694.527344 353.484375 691.738281 354.976562 687.753906 C 359.652344 675.261719 365.023438 667.515625 377.273438 666.074219 L 377.257812 747.546875 C 365.058594 745.980469 359.402344 737.71875 354.976562 725.890625 C 353.484375 721.910156 350.925781 719.121094 347.773438 718.039062 C 345.351562 717.210938 342.695312 717.472656 340.621094 718.753906 C 338.765625 719.894531 337.5 721.78125 337.058594 724.054688 C 336.597656 726.460938 336.835938 730.394531 340.59375 735.476562 C 346.460938 743.40625 355.910156 752.433594 377.253906 753.398438 L 377.246094 786.410156 C 377.246094 787.074219 377.234375 787.722656 377.21875 788.375 C 374.527344 788.28125 371.769531 788.039062 368.988281 787.648438 M 334.675781 774.300781 C 334.355469 774.660156 333.90625 774.847656 333.449219 774.847656 C 333.15625 774.847656 332.859375 774.769531 332.59375 774.609375 C 314.851562 763.851562 293.671875 743.355469 293.566406 706.820312 C 293.671875 670.289062 314.851562 649.796875 332.59375 639.039062 C 332.859375 638.875 333.15625 638.800781 333.449219 638.800781 C 333.90625 638.800781 334.355469 638.988281 334.675781 639.34375 C 335.207031 639.933594 335.242188 640.816406 334.761719 641.449219 C 322.308594 657.78125 315.398438 680.90625 315.300781 706.5625 L 315.300781 707.082031 C 315.398438 732.742188 322.308594 755.871094 334.761719 772.203125 C 335.242188 772.832031 335.207031 773.714844 334.675781 774.300781 M 349.152344 568.273438 L 339.964844 562.535156 L 422.367188 562.535156 L 413.042969 568.285156 C 399.417969 576.6875 389.511719 586.0625 383.597656 596.152344 L 380.902344 600.75 L 378.230469 596.136719 C 372.390625 586.054688 362.609375 576.679688 349.152344 568.273438 M 358.136719 520.839844 C 358.136719 508.203125 368.382812 497.960938 381.019531 497.960938 C 393.652344 497.960938 403.898438 508.203125 403.898438 520.839844 C 403.898438 533.476562 393.652344 543.71875 381.019531 543.71875 C 368.382812 543.71875 358.136719 533.476562 358.136719 520.839844 M 387.105469 666.195312 C 403.242188 670.015625 410.503906 689.355469 410.539062 706.828125 C 410.503906 724.292969 403.257812 743.628906 387.140625 747.445312 C 386.261719 747.570312 385.386719 747.660156 384.519531 747.722656 L 384.492188 665.921875 C 385.355469 665.984375 386.226562 666.074219 387.105469 666.195312 M 408.851562 675.003906 C 416.832031 680.824219 425.03125 690.726562 425.078125 706.828125 C 425.03125 722.867188 416.886719 732.757812 408.878906 738.601562 C 408.316406 739.011719 407.589844 738.34375 407.953125 737.757812 C 413.046875 729.5 415.84375 718.730469 415.890625 706.960938 L 415.890625 706.691406 C 415.84375 694.894531 413.039062 684.113281 407.925781 675.847656 C 407.5625 675.257812 408.289062 674.59375 408.851562 675.003906 M 421.210938 632.738281 C 421.527344 632.285156 422.035156 632.03125 422.5625 632.03125 C 422.78125 632.03125 423.003906 632.074219 423.214844 632.164062 C 438.546875 638.757812 447.074219 648.472656 452.789062 656.199219 C 458.5625 664 458.625 669.292969 458.152344 671.753906 C 457.75 673.851562 456.695312 675.480469 455.097656 676.464844 C 453.96875 677.164062 452.628906 677.53125 451.222656 677.53125 C 450.277344 677.53125 449.320312 677.367188 448.382812 677.046875 C 444.699219 675.785156 441.570312 672.15625 439.574219 666.828125 C 435.871094 656.933594 430.453125 644.355469 421.367188 634.816406 C 420.828125 634.25 420.761719 633.382812 421.210938 632.738281 M 421.371094 778.828125 C 430.449219 769.300781 435.867188 756.71875 439.574219 746.820312 C 441.566406 741.492188 444.695312 737.863281 448.382812 736.601562 C 449.316406 736.28125 450.273438 736.117188 451.226562 736.117188 C 452.628906 736.117188 453.96875 736.484375 455.101562 737.179688 C 456.695312 738.167969 457.75 739.796875 458.152344 741.894531 C 458.628906 744.355469 458.5625 749.652344 452.789062 757.449219 C 447.074219 765.175781 438.546875 774.890625 423.214844 781.480469 C 423.003906 781.570312 422.785156 781.617188 422.566406 781.617188 C 422.039062 781.617188 421.527344 781.363281 421.210938 780.910156 C 420.765625 780.265625 420.832031 779.394531 421.371094 778.828125 M 552.296875 758.429688 C 550.390625 758.429688 548.804688 759.921875 548.714844 761.824219 C 545.335938 831.417969 487.832031 854.167969 459.554688 854.167969 C 438.179688 854.167969 389.953125 848.21875 384.960938 795.460938 C 427.980469 794.429688 446.59375 776.769531 458.023438 761.320312 C 464.910156 752.011719 465.371094 744.949219 464.546875 740.660156 C 463.796875 736.78125 461.65625 733.578125 458.519531 731.640625 C 456.359375 730.308594 453.839844 729.605469 451.226562 729.605469 C 449.5625 729.605469 447.894531 729.886719 446.273438 730.445312 C 440.710938 732.347656 436.167969 737.355469 433.476562 744.539062 C 423.617188 770.875 412.210938 786.695312 384.5625 788.28125 C 384.550781 787.625 384.535156 786.964844 384.535156 786.292969 L 384.523438 753.304688 C 385.851562 753.167969 387.148438 752.957031 388.394531 752.660156 C 408.53125 749.59375 430.285156 733.980469 430.429688 706.964844 L 430.429688 706.691406 C 430.285156 679.667969 408.554688 664.058594 388.421875 660.992188 C 387.152344 660.691406 385.835938 660.476562 384.488281 660.339844 L 384.476562 625.375 C 412.035156 627.074219 424.125 644.132812 433.476562 669.113281 C 436.167969 676.292969 440.710938 681.300781 446.273438 683.203125 C 447.894531 683.757812 449.558594 684.039062 451.21875 684.039062 C 453.832031 684.039062 456.359375 683.335938 458.519531 682.007812 C 461.65625 680.070312 463.796875 676.867188 464.546875 672.988281 C 465.371094 668.703125 464.910156 661.636719 458.023438 652.328125 C 446.550781 636.824219 427.835938 619.089844 384.480469 618.183594 C 384.808594 582.589844 441.039062 562.535156 441.609375 562.335938 C 442.824219 561.914062 443.632812 560.769531 443.632812 559.484375 L 443.632812 556.925781 C 443.632812 556.050781 442.925781 555.347656 442.054688 555.347656 L 384.460938 555.058594 L 384.460938 550.867188 C 399.503906 549.125 411.179688 536.347656 411.179688 520.839844 C 411.179688 504.140625 397.644531 490.601562 380.941406 490.601562 C 364.242188 490.601562 350.703125 504.140625 350.703125 520.839844 C 350.703125 536.296875 362.304688 549.039062 377.277344 550.847656 L 377.277344 555.058594 L 321 555.347656 C 320.128906 555.347656 319.421875 556.054688 319.421875 556.925781 L 319.421875 560.207031 C 319.421875 561.160156 320.023438 562.011719 320.921875 562.328125 C 321.484375 562.527344 377.023438 582.527344 377.28125 618.25 C 373.792969 618.449219 370.417969 618.929688 367.207031 619.695312 C 367.160156 619.703125 367.117188 619.710938 367.074219 619.71875 C 328.726562 625.5625 287.332031 655.238281 287.058594 706.5625 L 287.058594 707.082031 C 287.332031 758.414062 328.6875 788.078125 366.992188 793.914062 C 367.035156 793.921875 367.078125 793.929688 367.121094 793.9375 C 370.242188 794.675781 373.496094 795.144531 376.832031 795.363281 C 371.898438 847.84375 323.433594 854.167969 302.328125 854.167969 C 274.046875 854.167969 216.546875 831.417969 213.171875 761.824219 C 213.078125 759.921875 211.492188 758.429688 209.585938 758.429688 C 207.53125 758.429688 205.894531 760.160156 205.992188 762.214844 C 209.605469 836.925781 271.765625 861.351562 302.398438 861.351562 L 302.527344 861.351562 C 344.125 861.351562 363.554688 888.339844 371.4375 904.421875 C 374.28125 910.222656 376.121094 916.59375 376.867188 923.136719 C 377.101562 925.167969 378.785156 926.714844 380.828125 926.714844 C 382.878906 926.714844 384.570312 925.152344 384.789062 923.113281 C 385.488281 916.6875 387.199219 910.460938 389.945312 904.863281 C 398.125 888.179688 417.148438 861.351562 459.421875 861.351562 L 459.554688 861.351562 C 490.117188 861.351562 552.277344 836.925781 555.890625 762.21875 C 555.992188 760.160156 554.355469 758.429688 552.296875 758.429688 "/>
</svg>
